<svg width="24" height="24" viewBox="0 0 24 24" fill="none" xmlns="http://www.w3.org/2000/svg">
<path d="M7 22.75H3.85C3.29305 22.75 2.7589 22.5287 2.36508 22.1349C1.97125 21.7411 1.75 21.207 1.75 20.65V13.3C1.75 12.743 1.97125 12.2089 2.36508 11.8151C2.7589 11.4212 3.29305 11.2 3.85 11.2H7M14.35 9.1V4.9C14.35 4.06457 14.0181 3.26335 13.4274 2.67261C12.8366 2.08187 12.0354 1.75 11.2 1.75L7 11.2V22.75H18.844C19.3504 22.7557 19.8419 22.5782 20.2278 22.2502C20.6137 21.9222 20.8681 21.4657 20.944 20.965L22.393 11.515C22.4387 11.214 22.4184 10.9067 22.3335 10.6144C22.2486 10.322 22.1012 10.0516 21.9015 9.82189C21.7017 9.59217 21.4544 9.40863 21.1766 9.28398C20.8989 9.15933 20.5974 9.09655 20.293 9.1H14.35Z" stroke="white" stroke-width="2.25" stroke-linecap="round" stroke-linejoin="round"/>
</svg>
